<?xml version="1.0" encoding="utf-8"?>
<!-- Generator: Adobe Illustrator 15.0.0, SVG Export Plug-In . SVG Version: 6.00 Build 0)  -->
<!DOCTYPE svg PUBLIC "-//W3C//DTD SVG 1.1//EN" "http://www.w3.org/Graphics/SVG/1.1/DTD/svg11.dtd">
<svg version="1.1" id="Layer_1" xmlns="http://www.w3.org/2000/svg" xmlns:xlink="http://www.w3.org/1999/xlink" x="0px" y="0px"
	 width="80px" height="80px" viewBox="85 -25 80 80" enable-background="new 85 -25 80 80" xml:space="preserve">
<rect x="41.152" y="-240.5" display="none" width="301.348" height="205"/>
<rect x="-0.25" display="none" width="260" height="50"/>
<rect x="65.15" y="-194.45" fill="none" width="170" height="50.028"/>
<rect x="65.15" y="-144.92" fill="none" width="169.954" height="46.987"/>
<rect x="85" y="-12.5" fill="none" width="80" height="23.542"/>
<g enable-background="new    ">
	<path fill="#FFFFFF" d="M104.86,4.653l-9.718-15.694V4.653h-0.518v-16.471h0.612l9.694,15.647v-15.647h0.517V4.653H104.86z"/>
	<path fill="#FFFFFF" d="M111.213,4.653v-16.471h0.518V4.653H111.213z"/>
	<path fill="#FFFFFF" d="M127.625,3.181c-1.012,1.153-2.389,1.729-4.131,1.729c-0.972,0-1.865-0.201-2.682-0.601
		c-0.815-0.397-1.518-0.971-2.106-1.715c-0.588-0.748-1.043-1.638-1.365-2.683c-0.321-1.043-0.482-2.208-0.482-3.496
		c0-1.285,0.166-2.45,0.495-3.493c0.331-1.044,0.788-1.934,1.376-2.671c0.589-0.737,1.287-1.309,2.095-1.718
		c0.809-0.406,1.697-0.612,2.669-0.612c1.116,0,2.042,0.185,2.778,0.553c0.738,0.368,1.389,0.859,1.953,1.47l-0.354,0.353
		c-0.537-0.564-1.137-1.022-1.814-1.376c-0.673-0.352-1.526-0.529-2.563-0.529c-0.895,0-1.717,0.188-2.469,0.565
		c-0.754,0.376-1.399,0.914-1.942,1.611c-0.541,0.699-0.961,1.541-1.259,2.53c-0.298,0.987-0.447,2.094-0.447,3.317
		c0,1.224,0.153,2.33,0.459,3.319c0.306,0.988,0.728,1.83,1.27,2.528c0.543,0.699,1.185,1.235,1.931,1.613
		c0.744,0.376,1.563,0.565,2.458,0.565c1.631,0,2.895-0.529,3.79-1.589c0.896-1.059,1.342-2.616,1.342-4.671v-0.399h-4.07v-0.471
		h4.587v0.824C129.143,0.346,128.637,2.029,127.625,3.181z"/>
	<path fill="#FFFFFF" d="M134.035,4.653v-16.471h8.824v0.47h-8.307v6.988h5.152v0.471h-5.152V4.18h8.658v0.473H134.035z"/>
	<path fill="#FFFFFF" d="M147.492,4.653v-16.471h0.521V4.18h8.115v0.473H147.492z"/>
</g>
<rect x="85" y="10.809" fill="none" width="79.979" height="22.109"/>
<g enable-background="new    ">
	<path fill="#DD493B" d="M93.755,27.963V11.49h1.834v16.473H93.755z"/>
	<path fill="#DD493B" d="M110.625,19.254c-0.705,0.784-1.646,1.303-2.824,1.552l3.625,7.157h-2.118l-3.529-7.014h-3.906v7.014
		h-1.835V11.49h6.518c0.722,0,1.396,0.094,2.024,0.283c0.628,0.187,1.168,0.475,1.623,0.858c0.455,0.383,0.815,0.867,1.083,1.445
		c0.266,0.582,0.4,1.272,0.4,2.07C111.684,17.433,111.331,18.469,110.625,19.254z M108.99,13.923
		c-0.574-0.507-1.408-0.763-2.506-0.763h-4.612v6.119h4.376c1.224,0,2.129-0.253,2.718-0.764c0.587-0.507,0.883-1.276,0.883-2.309
		C109.85,15.193,109.562,14.43,108.99,13.923z"/>
	<path fill="#DD493B" d="M115.331,27.963V11.49h9.954v1.67h-8.119v5.177h4.706v1.67h-4.706v6.282h8.471v1.675L115.331,27.963
		L115.331,27.963z"/>
	<path fill="#DD493B" d="M139.285,27.963l-7.18-11.272c-0.096-0.141-0.195-0.308-0.305-0.506c-0.111-0.197-0.221-0.394-0.33-0.589
		c-0.105-0.194-0.215-0.378-0.316-0.552c-0.104-0.172-0.176-0.315-0.225-0.425v1.13v12.214h-1.787V11.49h1.787l7.133,11.484
		c0.092,0.14,0.193,0.306,0.303,0.503c0.109,0.196,0.221,0.393,0.332,0.588c0.105,0.197,0.213,0.383,0.316,0.556
		c0.104,0.17,0.176,0.313,0.225,0.421v-1.131V11.49h1.785v16.473H139.285z"/>
	<path fill="#DD493B" d="M155.084,25.443c-0.242,0.565-0.6,1.052-1.072,1.462c-0.469,0.406-1.043,0.727-1.715,0.963
		c-0.678,0.235-1.441,0.354-2.303,0.354c-1.133,0-2.17-0.217-3.119-0.646c-0.953-0.432-1.754-0.977-2.414-1.636l1.227-1.364
		c0.627,0.597,1.301,1.075,2.025,1.437c0.719,0.362,1.502,0.537,2.352,0.537c1.098,0,1.963-0.249,2.602-0.753
		c0.633-0.499,0.947-1.19,0.947-2.067c0-0.379-0.063-0.722-0.186-1.035c-0.129-0.315-0.344-0.603-0.646-0.872
		c-0.307-0.265-0.711-0.53-1.213-0.788c-0.502-0.262-1.129-0.521-1.881-0.789c-0.895-0.314-1.645-0.632-2.248-0.953
		c-0.602-0.32-1.088-0.666-1.459-1.034c-0.369-0.369-0.635-0.779-0.801-1.233c-0.166-0.458-0.246-0.982-0.246-1.578
		c0-0.661,0.127-1.247,0.379-1.765c0.25-0.518,0.6-0.961,1.047-1.328c0.447-0.371,0.99-0.647,1.625-0.837
		c0.637-0.189,1.336-0.283,2.107-0.283c1.098,0,2.033,0.157,2.813,0.472c0.773,0.313,1.506,0.744,2.197,1.294l-1.178,1.432
		c-0.596-0.5-1.193-0.88-1.795-1.138c-0.607-0.258-1.324-0.39-2.154-0.39c-0.564,0-1.053,0.068-1.459,0.201
		c-0.408,0.133-0.74,0.313-1.002,0.53c-0.26,0.221-0.447,0.475-0.563,0.763c-0.117,0.292-0.18,0.601-0.18,0.93
		c0,0.348,0.049,0.657,0.141,0.932c0.098,0.274,0.285,0.538,0.566,0.799c0.285,0.258,0.68,0.512,1.189,0.763
		c0.508,0.25,1.18,0.525,2.008,0.823c0.912,0.331,1.674,0.658,2.287,0.99c0.609,0.33,1.102,0.692,1.469,1.084
		c0.369,0.393,0.631,0.823,0.787,1.295c0.158,0.468,0.236,1.01,0.236,1.62C155.449,24.275,155.328,24.878,155.084,25.443z"/>
</g>
<rect x="85" y="33.61" fill="none" width="80" height="14.09"/>
<g enable-background="new    ">
	<path fill="#FFFFFF" d="M97.73,41.5v-0.983c-0.23,0.316-0.509,0.579-0.838,0.79c-0.329,0.21-0.707,0.314-1.131,0.314
		c-0.318,0-0.608-0.058-0.872-0.168c-0.265-0.113-0.49-0.286-0.677-0.523c-0.188-0.237-0.333-0.541-0.438-0.911
		c-0.104-0.367-0.157-0.813-0.157-1.331s0.053-0.97,0.157-1.343c0.105-0.377,0.253-0.686,0.443-0.932
		c0.192-0.243,0.42-0.425,0.688-0.541c0.269-0.113,0.56-0.173,0.876-0.173c0.412,0,0.782,0.101,1.111,0.301
		c0.327,0.206,0.608,0.463,0.838,0.78v-3.04l0.238-0.129v7.893H97.73V41.5z M97.73,37.117c-0.216-0.347-0.494-0.637-0.833-0.867
		c-0.339-0.229-0.704-0.346-1.093-0.346c-0.606,0-1.083,0.224-1.429,0.67c-0.347,0.45-0.52,1.153-0.52,2.111
		c0,0.945,0.176,1.638,0.525,2.075c0.349,0.435,0.825,0.652,1.424,0.652c0.389,0,0.751-0.109,1.081-0.336
		c0.333-0.223,0.615-0.512,0.845-0.865V37.117z"/>
	<path fill="#FFFFFF" d="M110.61,38.699h-4.232c0.008,0.431,0.063,0.817,0.168,1.155c0.104,0.343,0.248,0.625,0.427,0.855
		c0.18,0.231,0.393,0.406,0.638,0.525c0.246,0.12,0.511,0.178,0.792,0.178c0.396,0,0.729-0.043,1-0.13
		c0.27-0.087,0.536-0.206,0.794-0.356l0.098,0.174c-0.274,0.166-0.558,0.295-0.85,0.384c-0.292,0.087-0.648,0.137-1.065,0.137
		c-0.296,0-0.578-0.065-0.845-0.187c-0.269-0.124-0.503-0.31-0.709-0.559c-0.205-0.248-0.371-0.56-0.497-0.927
		c-0.127-0.368-0.19-0.801-0.19-1.299c0-0.47,0.059-0.889,0.179-1.255c0.119-0.37,0.28-0.679,0.482-0.933
		c0.204-0.251,0.441-0.441,0.717-0.574c0.275-0.129,0.569-0.193,0.877-0.193c0.326,0,0.625,0.063,0.896,0.189
		c0.271,0.128,0.504,0.312,0.698,0.558c0.196,0.245,0.35,0.549,0.46,0.902c0.113,0.359,0.169,0.769,0.169,1.229
		C110.621,38.629,110.618,38.668,110.61,38.699z M110.221,37.389c-0.101-0.326-0.24-0.601-0.415-0.819
		c-0.177-0.221-0.385-0.384-0.622-0.498c-0.237-0.11-0.5-0.167-0.789-0.167c-0.273,0-0.53,0.057-0.771,0.167
		c-0.24,0.109-0.451,0.277-0.631,0.498c-0.179,0.22-0.325,0.493-0.438,0.819c-0.11,0.321-0.17,0.694-0.178,1.113h4.006
		C110.375,38.084,110.322,37.712,110.221,37.389z"/>
	<path fill="#FFFFFF" d="M121.342,41.246c-0.321,0.246-0.748,0.375-1.282,0.375c-0.369,0-0.694-0.058-0.975-0.168
		c-0.282-0.113-0.538-0.258-0.77-0.439l0.12-0.175c0.223,0.17,0.463,0.305,0.724,0.414c0.256,0.106,0.555,0.165,0.893,0.165
		c0.482,0,0.858-0.111,1.126-0.326c0.272-0.216,0.407-0.523,0.407-0.921c0-0.173-0.024-0.324-0.069-0.453
		c-0.047-0.129-0.127-0.252-0.238-0.369c-0.111-0.114-0.263-0.229-0.458-0.341c-0.196-0.111-0.44-0.228-0.734-0.352
		c-0.302-0.124-0.554-0.241-0.753-0.354c-0.202-0.108-0.366-0.226-0.493-0.35c-0.126-0.124-0.215-0.262-0.27-0.412
		c-0.054-0.151-0.08-0.332-0.08-0.54c0-0.183,0.032-0.349,0.102-0.511c0.071-0.157,0.171-0.294,0.308-0.41
		c0.137-0.114,0.3-0.208,0.491-0.276c0.191-0.067,0.412-0.101,0.664-0.101c0.396,0,0.726,0.045,0.993,0.146
		c0.265,0.103,0.485,0.228,0.657,0.369l-0.128,0.173c-0.172-0.144-0.382-0.262-0.629-0.352c-0.248-0.088-0.545-0.133-0.899-0.133
		c-0.414,0-0.737,0.106-0.969,0.318c-0.236,0.213-0.352,0.467-0.352,0.762c0,0.174,0.023,0.324,0.071,0.457
		c0.046,0.127,0.125,0.247,0.237,0.358c0.111,0.105,0.262,0.211,0.452,0.313c0.19,0.101,0.431,0.213,0.718,0.334
		c0.309,0.132,0.568,0.251,0.771,0.369c0.207,0.116,0.372,0.238,0.495,0.365c0.129,0.131,0.218,0.271,0.271,0.428
		c0.054,0.157,0.082,0.344,0.082,0.559C121.824,40.638,121.664,40.997,121.342,41.246z"/>
	<path fill="#FFFFFF" d="M130.357,34.212c-0.041,0.039-0.084,0.061-0.135,0.061c-0.064,0-0.119-0.021-0.158-0.061
		c-0.041-0.041-0.059-0.092-0.059-0.149c0-0.137,0.072-0.205,0.217-0.205c0.051,0,0.094,0.019,0.135,0.058
		c0.039,0.042,0.061,0.09,0.061,0.148C130.418,34.12,130.396,34.171,130.357,34.212z M130.082,41.5v-5.682h0.238v5.681L130.082,41.5
		L130.082,41.5z"/>
	<path fill="#FFFFFF" d="M142.74,42.199c-0.104,0.319-0.273,0.584-0.502,0.79c-0.23,0.207-0.529,0.358-0.895,0.453
		c-0.361,0.099-0.807,0.149-1.324,0.157l-0.098-0.216c0.506-0.007,0.934-0.051,1.279-0.137c0.346-0.083,0.627-0.216,0.846-0.399
		c0.213-0.188,0.369-0.422,0.467-0.714c0.098-0.288,0.146-0.647,0.146-1.075v-0.541c-0.23,0.315-0.506,0.578-0.836,0.789
		c-0.328,0.21-0.707,0.314-1.129,0.314c-0.32,0-0.609-0.058-0.877-0.168c-0.26-0.112-0.486-0.285-0.674-0.523
		c-0.186-0.236-0.334-0.54-0.439-0.91c-0.107-0.368-0.158-0.813-0.158-1.332c0-0.518,0.051-0.967,0.158-1.343
		c0.105-0.374,0.252-0.685,0.445-0.93c0.189-0.245,0.418-0.426,0.686-0.54c0.266-0.116,0.561-0.175,0.877-0.175
		c0.41,0,0.779,0.102,1.107,0.305c0.328,0.201,0.609,0.46,0.838,0.776v-0.962h0.238v5.228
		C142.896,41.491,142.846,41.878,142.74,42.199z M142.658,37.117c-0.217-0.347-0.494-0.637-0.832-0.867
		c-0.34-0.229-0.705-0.346-1.092-0.346c-0.605,0-1.082,0.224-1.43,0.67c-0.346,0.45-0.52,1.153-0.52,2.111
		c0,0.945,0.174,1.638,0.523,2.075c0.348,0.435,0.826,0.652,1.426,0.652c0.387,0,0.75-0.109,1.08-0.336
		c0.33-0.223,0.613-0.512,0.844-0.865V37.117L142.658,37.117z"/>
	<path fill="#FFFFFF" d="M155.387,41.5v-3.464c0-0.748-0.166-1.289-0.496-1.627c-0.334-0.338-0.781-0.502-1.346-0.502
		c-0.217,0-0.441,0.033-0.672,0.104c-0.23,0.065-0.439,0.183-0.621,0.344c-0.186,0.164-0.336,0.379-0.455,0.648
		c-0.117,0.272-0.18,0.612-0.18,1.024v3.477h-0.236v-5.686h0.236v1.232c0.109-0.453,0.346-0.794,0.705-1.017
		c0.361-0.226,0.781-0.336,1.264-0.336c0.305,0,0.58,0.044,0.83,0.128c0.25,0.088,0.463,0.224,0.646,0.408
		c0.178,0.184,0.316,0.419,0.414,0.71c0.098,0.285,0.146,0.634,0.146,1.047v3.507L155.387,41.5L155.387,41.5L155.387,41.5
		L155.387,41.5z"/>
</g>
</svg>
