<?xml version="1.0" encoding="utf-8"?>
<!-- Generator: Adobe Illustrator 15.0.0, SVG Export Plug-In . SVG Version: 6.00 Build 0)  -->
<!DOCTYPE svg PUBLIC "-//W3C//DTD SVG 1.1//EN" "http://www.w3.org/Graphics/SVG/1.1/DTD/svg11.dtd">
<svg version="1.1" id="Layer_1" xmlns="http://www.w3.org/2000/svg" xmlns:xlink="http://www.w3.org/1999/xlink" x="0px" y="0px"
	 width="112.5px" height="100px" viewBox="-8.554 -2.25 112.5 100" enable-background="new -8.554 -2.25 112.5 100"
	 xml:space="preserve">
<rect x="-1.625" y="12.5" fill="none" width="100" height="29.428"/>
<g enable-background="new    ">
	<path fill="#FFFFFF" d="M23.2,33.94L11.053,14.322V33.94h-0.647V13.352h0.765L23.289,32.91V13.352h0.646V33.94H23.2z"/>
	<path fill="#FFFFFF" d="M31.141,33.94V13.352h0.647V33.94H31.141z"/>
	<path fill="#FFFFFF" d="M51.655,32.102c-1.265,1.441-2.985,2.162-5.162,2.162c-1.215,0-2.333-0.252-3.353-0.751
		c-1.02-0.497-1.897-1.213-2.632-2.145c-0.736-0.935-1.305-2.048-1.706-3.354c-0.403-1.304-0.604-2.76-0.604-4.369
		c0-1.607,0.207-3.064,0.618-4.367c0.413-1.305,0.985-2.417,1.72-3.338c0.736-0.922,1.609-1.637,2.619-2.147
		c1.009-0.508,2.122-0.765,3.337-0.765c1.393,0,2.549,0.23,3.471,0.691c0.922,0.46,1.735,1.073,2.442,1.838l-0.441,0.44
		c-0.67-0.705-1.422-1.279-2.268-1.72c-0.845-0.44-1.909-0.661-3.204-0.661c-1.118,0-2.147,0.234-3.088,0.706
		c-0.941,0.47-1.75,1.142-2.426,2.015c-0.676,0.874-1.202,1.925-1.574,3.162c-0.373,1.235-0.558,2.618-0.558,4.146
		c0,1.53,0.19,2.913,0.574,4.148c0.381,1.235,0.911,2.288,1.587,3.16c0.677,0.874,1.481,1.544,2.412,2.017
		c0.931,0.47,1.956,0.707,3.074,0.707c2.039,0,3.618-0.662,4.735-1.986c1.118-1.324,1.679-3.27,1.679-5.84v-0.499h-5.089v-0.588
		h5.736v1.03C53.553,28.558,52.92,30.661,51.655,32.102z"/>
	<path fill="#FFFFFF" d="M59.669,33.94V13.352h11.029v0.588H60.316v8.735h6.442v0.588h-6.442v10.087h10.825v0.59H59.669z"/>
	<path fill="#FFFFFF" d="M76.492,33.94V13.352h0.648v19.999h10.147v0.59H76.492z"/>
</g>
<rect x="-1.625" y="41.635" fill="none" width="99.973" height="27.64"/>
<g enable-background="new    ">
	<path fill="#DD493B" d="M9.318,63.079V42.487h2.294v20.592H9.318z"/>
	<path fill="#DD493B" d="M30.407,52.192c-0.882,0.98-2.058,1.627-3.53,1.94l4.53,8.946H28.76l-4.412-8.767h-4.882v8.767h-2.294
		V42.487h8.147c0.901,0,1.745,0.117,2.529,0.354c0.785,0.233,1.46,0.594,2.029,1.073c0.569,0.478,1.021,1.083,1.354,1.807
		c0.332,0.727,0.5,1.589,0.5,2.587C31.73,49.916,31.289,51.212,30.407,52.192z M28.362,45.529c-0.716-0.635-1.759-0.953-3.132-0.953
		h-5.765v7.646h5.471c1.529,0,2.661-0.315,3.396-0.952c0.735-0.635,1.104-1.597,1.104-2.886
		C29.436,47.116,29.077,46.162,28.362,45.529z"/>
	<path fill="#DD493B" d="M36.289,63.079V42.487h12.441v2.089H38.582v6.47h5.883v2.089h-5.883v7.854H49.17v2.092L36.289,63.079
		L36.289,63.079z"/>
	<path fill="#DD493B" d="M66.23,63.079l-8.975-14.092c-0.118-0.176-0.244-0.386-0.379-0.633c-0.138-0.244-0.275-0.49-0.412-0.734
		c-0.134-0.244-0.268-0.475-0.395-0.69c-0.129-0.216-0.22-0.394-0.28-0.531v1.412v15.269h-2.236V42.487h2.236l8.912,14.354
		c0.116,0.176,0.244,0.384,0.38,0.63c0.135,0.244,0.275,0.49,0.413,0.733c0.135,0.247,0.269,0.48,0.396,0.696
		c0.128,0.212,0.22,0.39,0.281,0.526v-1.412V42.487h2.234v20.592H66.23z"/>
	<path fill="#DD493B" d="M85.979,59.929c-0.304,0.706-0.749,1.314-1.338,1.827c-0.588,0.508-1.304,0.909-2.144,1.204
		c-0.845,0.294-1.802,0.442-2.881,0.442c-1.411,0-2.71-0.27-3.896-0.809c-1.189-0.537-2.192-1.221-3.015-2.046l1.531-1.704
		c0.784,0.746,1.627,1.344,2.529,1.797c0.901,0.45,1.881,0.672,2.94,0.672c1.373,0,2.457-0.313,3.25-0.942
		c0.794-0.624,1.189-1.489,1.189-2.586c0-0.472-0.079-0.901-0.234-1.293c-0.159-0.393-0.428-0.753-0.808-1.091
		c-0.382-0.33-0.888-0.663-1.514-0.985c-0.627-0.325-1.413-0.648-2.354-0.986c-1.118-0.392-2.054-0.789-2.809-1.188
		c-0.755-0.403-1.361-0.835-1.824-1.294c-0.461-0.461-0.794-0.975-1-1.543c-0.207-0.571-0.308-1.227-0.308-1.972
		c0-0.825,0.158-1.559,0.472-2.207c0.313-0.646,0.749-1.2,1.311-1.66c0.558-0.462,1.235-0.809,2.028-1.045
		c0.797-0.236,1.672-0.354,2.635-0.354c1.372,0,2.543,0.195,3.515,0.59c0.97,0.393,1.886,0.931,2.75,1.617l-1.472,1.791
		c-0.744-0.625-1.494-1.101-2.248-1.424c-0.756-0.321-1.653-0.485-2.692-0.485c-0.705,0-1.312,0.084-1.823,0.25
		c-0.51,0.167-0.925,0.39-1.25,0.662c-0.324,0.276-0.558,0.593-0.704,0.954c-0.147,0.363-0.221,0.751-0.221,1.163
		c0,0.434,0.06,0.821,0.176,1.163c0.118,0.343,0.355,0.674,0.707,0.999c0.354,0.322,0.846,0.642,1.485,0.954
		c0.637,0.313,1.475,0.657,2.514,1.028c1.136,0.414,2.087,0.825,2.853,1.237c0.765,0.413,1.378,0.867,1.838,1.355
		c0.46,0.49,0.79,1.029,0.985,1.618c0.195,0.587,0.295,1.264,0.295,2.026C86.435,58.469,86.283,59.222,85.979,59.929z"/>
</g>
<rect x="-1.625" y="70.136" fill="none" width="100" height="17.614"/>
<g enable-background="new    ">
	<path fill="#FFFFFF" d="M14.288,80v-1.23c-0.288,0.396-0.637,0.725-1.048,0.987c-0.411,0.264-0.882,0.393-1.413,0.393
		c-0.397,0-0.76-0.07-1.089-0.209c-0.33-0.14-0.612-0.357-0.847-0.655c-0.235-0.296-0.417-0.676-0.548-1.138
		c-0.129-0.458-0.196-1.016-0.196-1.663c0-0.649,0.066-1.212,0.196-1.678c0.131-0.472,0.316-0.858,0.555-1.165
		c0.239-0.307,0.525-0.533,0.859-0.677c0.335-0.144,0.7-0.215,1.096-0.215c0.515,0,0.977,0.125,1.388,0.377
		c0.41,0.255,0.76,0.576,1.048,0.973v-3.799l0.298-0.163v9.864h-0.298V80z M14.288,74.521c-0.27-0.434-0.617-0.795-1.042-1.083
		c-0.423-0.287-0.878-0.433-1.366-0.433c-0.757,0-1.354,0.28-1.786,0.839c-0.433,0.562-0.65,1.439-0.65,2.639
		c0,1.181,0.219,2.046,0.657,2.591c0.437,0.545,1.03,0.817,1.779,0.817c0.487,0,0.938-0.137,1.352-0.419
		c0.416-0.279,0.768-0.641,1.056-1.082V74.521z"/>
	<path fill="#FFFFFF" d="M30.388,76.498h-5.29c0.009,0.539,0.079,1.023,0.21,1.445c0.13,0.427,0.31,0.78,0.535,1.07
		c0.225,0.288,0.491,0.506,0.797,0.655s0.637,0.222,0.989,0.222c0.496,0,0.912-0.054,1.25-0.162c0.338-0.108,0.67-0.257,0.994-0.445
		l0.123,0.217c-0.343,0.206-0.697,0.368-1.063,0.48c-0.364,0.109-0.81,0.169-1.333,0.169c-0.37,0-0.722-0.08-1.055-0.231
		c-0.335-0.155-0.63-0.388-0.887-0.698c-0.256-0.312-0.464-0.699-0.622-1.159c-0.158-0.459-0.237-1.001-0.237-1.624
		c0-0.586,0.074-1.108,0.224-1.568c0.149-0.461,0.35-0.847,0.604-1.166c0.253-0.313,0.551-0.551,0.895-0.717
		c0.344-0.161,0.711-0.242,1.098-0.242c0.407,0,0.78,0.079,1.12,0.237c0.339,0.159,0.631,0.39,0.874,0.697
		c0.245,0.308,0.437,0.686,0.577,1.129c0.14,0.447,0.209,0.959,0.209,1.534C30.401,76.411,30.398,76.459,30.388,76.498z
		 M29.902,74.859c-0.126-0.407-0.3-0.749-0.519-1.022c-0.22-0.276-0.479-0.481-0.777-0.623c-0.295-0.14-0.625-0.209-0.985-0.209
		c-0.341,0-0.664,0.069-0.964,0.209c-0.301,0.138-0.564,0.347-0.789,0.623c-0.225,0.275-0.407,0.615-0.547,1.022
		c-0.139,0.401-0.213,0.869-0.222,1.393h5.006C30.095,75.729,30.028,75.266,29.902,74.859z"/>
	<path fill="#FFFFFF" d="M43.803,79.684c-0.401,0.309-0.937,0.466-1.604,0.466c-0.46,0-0.864-0.07-1.217-0.209
		c-0.352-0.14-0.672-0.322-0.96-0.548l0.149-0.22c0.278,0.211,0.579,0.382,0.902,0.518c0.323,0.134,0.696,0.205,1.12,0.205
		c0.602,0,1.071-0.138,1.408-0.406c0.338-0.27,0.508-0.654,0.508-1.15c0-0.217-0.03-0.406-0.088-0.567s-0.158-0.316-0.297-0.461
		c-0.139-0.144-0.33-0.286-0.573-0.428c-0.244-0.138-0.548-0.284-0.917-0.439c-0.377-0.153-0.692-0.3-0.942-0.439
		c-0.253-0.137-0.457-0.284-0.615-0.438c-0.157-0.155-0.27-0.326-0.337-0.515c-0.068-0.189-0.101-0.415-0.101-0.677
		c0-0.226,0.042-0.436,0.127-0.636c0.086-0.198,0.213-0.369,0.384-0.512c0.172-0.146,0.376-0.261,0.614-0.347
		c0.239-0.085,0.515-0.128,0.83-0.128c0.494,0,0.907,0.06,1.239,0.186c0.333,0.128,0.607,0.283,0.823,0.46l-0.162,0.217
		c-0.215-0.181-0.477-0.327-0.785-0.438c-0.31-0.111-0.682-0.167-1.123-0.167c-0.518,0-0.923,0.133-1.213,0.396
		c-0.292,0.268-0.438,0.585-0.438,0.954c0,0.217,0.029,0.404,0.087,0.57c0.06,0.16,0.158,0.31,0.297,0.448
		c0.139,0.132,0.328,0.266,0.567,0.392c0.238,0.125,0.537,0.266,0.896,0.418c0.386,0.164,0.709,0.315,0.963,0.462
		c0.257,0.144,0.463,0.297,0.62,0.458c0.158,0.16,0.27,0.338,0.337,0.534c0.067,0.194,0.101,0.428,0.101,0.697
		C44.405,78.923,44.205,79.37,43.803,79.684z"/>
	<path fill="#FFFFFF" d="M55.073,70.888c-0.05,0.05-0.106,0.076-0.17,0.076c-0.081,0-0.147-0.026-0.196-0.076
		c-0.05-0.05-0.073-0.113-0.073-0.186c0-0.171,0.089-0.257,0.269-0.257c0.064,0,0.12,0.024,0.17,0.074
		c0.049,0.051,0.075,0.11,0.075,0.184C55.147,70.774,55.122,70.838,55.073,70.888z M54.727,80v-7.103h0.299v7.102L54.727,80
		L54.727,80z"/>
	<path fill="#FFFFFF" d="M70.55,80.873c-0.131,0.401-0.34,0.73-0.628,0.986c-0.288,0.26-0.662,0.449-1.117,0.568
		c-0.452,0.123-1.006,0.188-1.654,0.197l-0.123-0.271c0.63-0.01,1.165-0.063,1.597-0.17c0.432-0.104,0.785-0.271,1.056-0.501
		c0.271-0.233,0.466-0.527,0.588-0.893c0.122-0.359,0.184-0.809,0.184-1.343v-0.678c-0.288,0.396-0.637,0.724-1.047,0.986
		c-0.41,0.264-0.882,0.394-1.413,0.394c-0.397,0-0.761-0.071-1.091-0.209c-0.328-0.14-0.61-0.356-0.846-0.655
		c-0.233-0.296-0.417-0.675-0.548-1.137c-0.132-0.459-0.196-1.016-0.196-1.665c0-0.648,0.064-1.208,0.196-1.678
		c0.131-0.469,0.314-0.856,0.555-1.164c0.238-0.307,0.525-0.533,0.857-0.675c0.333-0.146,0.7-0.217,1.096-0.217
		c0.515,0,0.976,0.125,1.386,0.379c0.409,0.252,0.761,0.575,1.047,0.972v-1.203h0.297v6.534
		C70.746,79.99,70.681,80.472,70.55,80.873z M70.448,74.521c-0.27-0.434-0.618-0.795-1.042-1.083
		c-0.423-0.287-0.879-0.433-1.366-0.433c-0.757,0-1.354,0.28-1.785,0.839c-0.432,0.562-0.648,1.439-0.648,2.639
		c0,1.181,0.217,2.046,0.655,2.591c0.436,0.545,1.03,0.817,1.779,0.817c0.485,0,0.938-0.137,1.352-0.419
		c0.415-0.279,0.768-0.641,1.056-1.082V74.521L70.448,74.521z"/>
	<path fill="#FFFFFF" d="M86.359,80v-4.33c0-0.937-0.208-1.612-0.623-2.034s-0.974-0.627-1.679-0.627
		c-0.27,0-0.552,0.041-0.841,0.128c-0.287,0.084-0.548,0.231-0.776,0.433c-0.23,0.204-0.419,0.474-0.57,0.811
		c-0.148,0.34-0.223,0.766-0.223,1.279v4.346H81.35v-7.106h0.297v1.54c0.134-0.566,0.429-0.993,0.88-1.271
		c0.452-0.279,0.978-0.417,1.581-0.417c0.38,0,0.724,0.054,1.036,0.159c0.312,0.109,0.579,0.279,0.804,0.509
		c0.226,0.23,0.399,0.524,0.521,0.887c0.122,0.357,0.185,0.794,0.185,1.31v4.385h-0.298V80H86.359L86.359,80z"/>
</g>
</svg>
