<?xml version="1.0" encoding="utf-8"?>
<!-- Generator: Adobe Illustrator 15.0.0, SVG Export Plug-In . SVG Version: 6.00 Build 0)  -->
<!DOCTYPE svg PUBLIC "-//W3C//DTD SVG 1.1//EN" "http://www.w3.org/Graphics/SVG/1.1/DTD/svg11.dtd">
<svg version="1.1" id="Layer_1" xmlns="http://www.w3.org/2000/svg" xmlns:xlink="http://www.w3.org/1999/xlink" x="0px" y="0px"
	 width="170px" height="50px" viewBox="0 -0.25 170 50" enable-background="new 0 -0.25 170 50" xml:space="preserve">
<rect width="170" height="50"/>
<g enable-background="new    ">
	<path fill="#FFFFFF" d="M30.673,39.75L18.467,20.59c-0.16-0.24-0.333-0.526-0.519-0.859c-0.187-0.334-0.372-0.667-0.558-1
		c-0.187-0.334-0.366-0.646-0.539-0.94c-0.173-0.293-0.299-0.533-0.378-0.72v1.92v20.76h-3.04v-28h3.04l12.12,19.52
		c0.16,0.24,0.333,0.527,0.52,0.86c0.187,0.334,0.373,0.667,0.56,1c0.187,0.334,0.366,0.647,0.54,0.94
		c0.173,0.293,0.3,0.533,0.38,0.72v-1.92V11.75h3.04v28H30.673z"/>
	<path fill="#DD493B" d="M41.152,39.75v-28h3.12v28H41.152z"/>
	<path fill="#DD493B" d="M54.752,39.43c-0.507,0.507-1.107,0.761-1.8,0.761s-1.293-0.254-1.8-0.761
		c-0.507-0.506-0.76-1.105-0.76-1.8c0-0.693,0.253-1.306,0.76-1.84c0.506-0.533,1.106-0.8,1.8-0.8s1.293,0.267,1.8,0.8
		c0.506,0.534,0.76,1.146,0.76,1.84C55.512,38.324,55.258,38.924,54.752,39.43z"/>
	<path fill="#FFFFFF" d="M80.571,32.05c-0.68,1.8-1.62,3.274-2.82,4.42c-1.2,1.147-2.614,1.98-4.24,2.5
		c-1.626,0.521-3.374,0.78-5.24,0.78h-6.84v-28h7.4c1.84,0,3.54,0.267,5.1,0.8c1.56,0.534,2.906,1.367,4.04,2.5
		c1.133,1.134,2.02,2.567,2.66,4.3c0.64,1.734,0.96,3.801,0.96,6.2C81.591,28.084,81.251,30.25,80.571,32.05z M75.952,17.43
		c-1.68-1.893-4.134-2.84-7.36-2.84h-4.04v22.32h4.12c1.52,0,2.88-0.206,4.08-0.62c1.2-0.413,2.226-1.073,3.08-1.98
		c0.853-0.906,1.506-2.072,1.96-3.5c0.453-1.426,0.68-3.14,0.68-5.14C78.472,22.07,77.631,19.324,75.952,17.43z"/>
</g>
<rect y="113.539" fill="none" width="170" height="29.941"/>
</svg>
