<?xml version="1.0" encoding="utf-8"?>
<!-- Generator: Adobe Illustrator 15.0.0, SVG Export Plug-In . SVG Version: 6.00 Build 0)  -->
<!DOCTYPE svg PUBLIC "-//W3C//DTD SVG 1.1//EN" "http://www.w3.org/Graphics/SVG/1.1/DTD/svg11.dtd">
<svg version="1.1" id="Layer_1" xmlns="http://www.w3.org/2000/svg" xmlns:xlink="http://www.w3.org/1999/xlink" x="0px" y="0px"
	 width="170px" height="150px" viewBox="0 0 170 150" enable-background="new 0 0 170 150" xml:space="preserve">
<rect display="none" fill="#1F1F1F" width="170" height="150"/>
<rect y="15.555" fill="none" width="170" height="50.028"/>
<g enable-background="new    ">
	<path fill="#FFFFFF" d="M42.202,52.004l-20.65-33.35v33.35h-1.1v-35h1.3l20.6,33.25v-33.25h1.1v35H42.202z"/>
	<path fill="#FFFFFF" d="M55.702,52.004v-35h1.1v35H55.702z"/>
	<path fill="#FFFFFF" d="M90.576,48.879c-2.15,2.45-5.075,3.675-8.775,3.675c-2.067,0-3.967-0.425-5.7-1.274
		c-1.734-0.851-3.225-2.066-4.475-3.65c-1.25-1.583-2.217-3.482-2.9-5.7c-0.684-2.216-1.025-4.691-1.025-7.425
		c0-2.732,0.35-5.208,1.05-7.425c0.7-2.217,1.675-4.108,2.925-5.675c1.25-1.567,2.733-2.783,4.45-3.65
		c1.716-0.866,3.608-1.3,5.675-1.3c2.367,0,4.333,0.392,5.9,1.175c1.566,0.783,2.949,1.825,4.15,3.125l-0.75,0.75
		c-1.139-1.2-2.418-2.175-3.854-2.925S84,17.455,81.8,17.455c-1.9,0-3.65,0.399-5.25,1.2c-1.6,0.8-2.975,1.941-4.125,3.425
		c-1.15,1.483-2.042,3.274-2.675,5.375c-0.634,2.1-0.95,4.45-0.95,7.05c0,2.6,0.325,4.95,0.975,7.05
		c0.65,2.101,1.55,3.893,2.7,5.375c1.15,1.483,2.516,2.625,4.1,3.425c1.583,0.801,3.325,1.2,5.225,1.2
		c3.467,0,6.15-1.125,8.052-3.375c1.898-2.25,2.853-5.558,2.853-9.925v-0.85h-8.65v-1h9.75v1.75
		C93.801,42.854,92.727,46.429,90.576,48.879z"/>
	<path fill="#FFFFFF" d="M104.2,52.004v-35h18.75v1H105.3v14.85h10.95v1H105.3v17.15h18.4v1H104.2z"/>
	<path fill="#FFFFFF" d="M132.8,52.004v-35h1.101v34h17.25v1H132.8z"/>
</g>
<rect y="65.085" fill="none" width="169.953" height="46.987"/>
<g enable-background="new    ">
	<path fill="#DD493B" d="M18.603,101.535v-35h3.9v35H18.603z"/>
	<path fill="#DD493B" d="M54.453,83.032c-1.5,1.666-3.5,2.767-6,3.299l7.7,15.204h-4.5l-7.5-14.9h-8.3v14.9h-3.9v-35h13.85
		c1.533,0,2.966,0.2,4.3,0.6c1.333,0.4,2.483,1.009,3.45,1.825c0.966,0.816,1.732,1.842,2.3,3.074
		c0.566,1.233,0.85,2.699,0.85,4.397C56.703,79.166,55.953,81.365,54.453,83.032z M50.978,71.704
		c-1.217-1.079-2.992-1.619-5.325-1.619h-9.8v13h9.3c2.6,0,4.525-0.539,5.775-1.618c1.25-1.078,1.875-2.715,1.875-4.906
		C52.803,74.402,52.194,72.783,50.978,71.704z"/>
	<path fill="#DD493B" d="M64.452,101.535v-35h21.149v3.55h-17.25v11h10v3.55h-10v13.352h18v3.553L64.452,101.535L64.452,101.535z"/>
	<path fill="#DD493B" d="M115.352,101.535l-15.256-23.95c-0.201-0.3-0.416-0.657-0.646-1.075c-0.232-0.416-0.468-0.832-0.698-1.25
		c-0.229-0.416-0.457-0.808-0.673-1.175c-0.22-0.366-0.374-0.666-0.478-0.899v2.399v25.95h-3.8v-35h3.8l15.15,24.4
		c0.2,0.299,0.416,0.654,0.648,1.07c0.23,0.418,0.468,0.834,0.701,1.25c0.229,0.418,0.457,0.813,0.674,1.18
		c0.218,0.363,0.375,0.666,0.477,0.896v-2.396v-26.4h3.8v35H115.352z"/>
	<path fill="#DD493B" d="M148.926,96.186c-0.518,1.199-1.275,2.233-2.275,3.104c-1,0.863-2.217,1.55-3.646,2.05
		c-1.437,0.5-3.063,0.75-4.897,0.75c-2.399,0-4.607-0.458-6.625-1.375c-2.021-0.916-3.728-2.073-5.125-3.478l2.601-2.897
		c1.333,1.271,2.767,2.284,4.301,3.052c1.532,0.77,3.199,1.148,5,1.148c2.332,0,4.175-0.533,5.524-1.604
		c1.351-1.063,2.021-2.533,2.021-4.396c0-0.803-0.134-1.533-0.396-2.2c-0.27-0.666-0.729-1.278-1.375-1.853
		c-0.649-0.563-1.51-1.125-2.575-1.676s-2.399-1.104-4-1.676c-1.899-0.666-3.492-1.341-4.774-2.023
		c-1.283-0.684-2.313-1.418-3.101-2.197c-0.784-0.783-1.351-1.658-1.699-2.625c-0.351-0.971-0.524-2.083-0.524-3.35
		c0-1.4,0.27-2.65,0.802-3.75c0.53-1.101,1.272-2.042,2.228-2.825c0.948-0.783,2.102-1.375,3.448-1.775
		c1.354-0.399,2.843-0.6,4.479-0.6c2.332,0,4.322,0.333,5.975,1c1.65,0.667,3.207,1.583,4.675,2.75l-2.5,3.05
		c-1.267-1.066-2.542-1.875-3.823-2.425c-1.285-0.55-2.811-0.825-4.576-0.825c-1.197,0-2.229,0.143-3.101,0.425
		c-0.866,0.284-1.573,0.659-2.125,1.125c-0.55,0.468-0.948,1.009-1.198,1.625c-0.25,0.617-0.375,1.275-0.375,1.976
		c0,0.733,0.102,1.392,0.299,1.975c0.201,0.584,0.604,1.147,1.201,1.696c0.602,0.554,1.439,1.096,2.523,1.625
		c1.082,0.533,2.508,1.117,4.275,1.75c1.932,0.701,3.549,1.4,4.85,2.104c1.3,0.701,2.342,1.471,3.125,2.303
		c0.783,0.834,1.342,1.75,1.675,2.75s0.5,2.147,0.5,3.447C149.7,93.702,149.441,94.984,148.926,96.186z"/>
</g>
<rect y="113.539" fill="none" width="170" height="29.941"/>
<g enable-background="new    ">
	<path fill="#FFFFFF" d="M27.052,130.307v-2.094c-0.491,0.676-1.085,1.234-1.783,1.68c-0.698,0.444-1.499,0.666-2.403,0.666
		c-0.675,0-1.292-0.119-1.852-0.354c-0.56-0.237-1.039-0.607-1.438-1.115c-0.399-0.506-0.709-1.148-0.932-1.934
		c-0.222-0.78-0.333-1.727-0.333-2.828s0.111-2.057,0.333-2.854c0.222-0.799,0.537-1.457,0.943-1.979
		c0.406-0.521,0.893-0.905,1.461-1.15c0.567-0.243,1.188-0.366,1.863-0.366c0.874,0,1.66,0.215,2.357,0.646
		c0.698,0.431,1.292,0.979,1.783,1.651v-6.463l0.506-0.271v16.77h-0.505V130.307z M27.052,120.99c-0.46-0.735-1.051-1.35-1.771-1.84
		c-0.721-0.49-1.495-0.735-2.323-0.735c-1.288,0-2.3,0.476-3.036,1.426c-0.736,0.951-1.104,2.445-1.104,4.484
		c0,2.01,0.372,3.478,1.116,4.405c0.744,0.927,1.751,1.392,3.024,1.392c0.828,0,1.595-0.238,2.3-0.714
		c0.705-0.475,1.303-1.088,1.794-1.84V120.99z"/>
	<path fill="#FFFFFF" d="M54.422,124.35h-8.993c0.015,0.92,0.134,1.739,0.357,2.461c0.222,0.724,0.525,1.326,0.908,1.816
		c0.383,0.49,0.835,0.861,1.357,1.115c0.521,0.253,1.081,0.38,1.679,0.38c0.843,0,1.552-0.093,2.127-0.276
		c0.575-0.183,1.139-0.438,1.69-0.759l0.207,0.368c-0.583,0.354-1.185,0.625-1.806,0.816c-0.621,0.188-1.376,0.287-2.265,0.287
		c-0.629,0-1.227-0.135-1.794-0.395c-0.568-0.262-1.07-0.656-1.507-1.188c-0.437-0.526-0.79-1.186-1.058-1.967
		c-0.268-0.783-0.402-1.703-0.402-2.761c0-0.997,0.126-1.886,0.38-2.668c0.253-0.782,0.595-1.44,1.026-1.979
		c0.431-0.535,0.938-0.938,1.522-1.219c0.584-0.275,1.207-0.414,1.867-0.414c0.691,0,1.326,0.135,1.902,0.402
		c0.577,0.27,1.072,0.664,1.487,1.186c0.415,0.522,0.741,1.162,0.979,1.92c0.238,0.763,0.357,1.629,0.357,2.61
		C54.445,124.203,54.437,124.287,54.422,124.35z M53.595,121.564c-0.214-0.688-0.509-1.271-0.883-1.735
		c-0.374-0.468-0.814-0.82-1.319-1.058c-0.504-0.238-1.063-0.356-1.674-0.356c-0.582,0-1.128,0.118-1.64,0.356
		c-0.512,0.233-0.959,0.59-1.342,1.058c-0.383,0.468-0.692,1.047-0.929,1.735c-0.237,0.688-0.363,1.479-0.378,2.369h8.51
		C53.923,123.046,53.809,122.256,53.595,121.564z"/>
	<path fill="#FFFFFF" d="M77.227,129.766c-0.683,0.528-1.591,0.793-2.726,0.793c-0.782,0-1.472-0.119-2.07-0.354
		c-0.598-0.237-1.142-0.549-1.633-0.934l0.253-0.369c0.474,0.354,0.985,0.646,1.536,0.875c0.55,0.229,1.184,0.348,1.903,0.348
		c1.023,0,1.822-0.229,2.395-0.688c0.573-0.461,0.86-1.111,0.86-1.955c0-0.369-0.05-0.689-0.149-0.967
		c-0.099-0.277-0.268-0.537-0.504-0.781c-0.236-0.246-0.561-0.486-0.974-0.729c-0.413-0.234-0.932-0.482-1.559-0.747
		c-0.642-0.261-1.177-0.51-1.604-0.748c-0.428-0.233-0.775-0.483-1.043-0.743c-0.267-0.265-0.458-0.556-0.573-0.875
		c-0.115-0.322-0.172-0.705-0.172-1.15c0-0.383,0.072-0.742,0.218-1.08c0.146-0.338,0.362-0.629,0.653-0.874s0.638-0.44,1.043-0.587
		c0.405-0.146,0.875-0.219,1.41-0.219c0.84,0,1.543,0.104,2.108,0.319c0.565,0.218,1.032,0.479,1.399,0.782l-0.276,0.367
		c-0.365-0.309-0.81-0.559-1.335-0.747c-0.525-0.188-1.16-0.287-1.906-0.287c-0.882,0-1.571,0.229-2.066,0.678
		c-0.495,0.453-0.742,0.993-0.742,1.622c0,0.368,0.05,0.688,0.149,0.969c0.099,0.274,0.267,0.526,0.504,0.76
		c0.237,0.229,0.558,0.453,0.963,0.666c0.405,0.215,0.913,0.453,1.524,0.713c0.657,0.277,1.204,0.537,1.639,0.783
		c0.435,0.244,0.787,0.506,1.054,0.778c0.268,0.275,0.458,0.579,0.573,0.908c0.115,0.33,0.172,0.728,0.172,1.188
		C78.25,128.475,77.909,129.236,77.227,129.766z"/>
	<path fill="#FFFFFF" d="M96.385,114.814c-0.084,0.084-0.18,0.127-0.287,0.127c-0.139,0-0.25-0.043-0.334-0.127
		s-0.125-0.188-0.125-0.313c0-0.291,0.152-0.438,0.459-0.438c0.107,0,0.203,0.043,0.287,0.127s0.127,0.188,0.127,0.313
		S96.469,114.73,96.385,114.814z M95.799,130.307V118.23h0.506v12.074h-0.506V130.307z"/>
	<path fill="#FFFFFF" d="M122.697,131.789c-0.223,0.684-0.579,1.242-1.069,1.679c-0.491,0.438-1.124,0.761-1.897,0.968
		c-0.771,0.207-1.713,0.316-2.813,0.332l-0.207-0.459c1.069-0.017,1.979-0.108,2.714-0.289c0.735-0.178,1.334-0.461,1.794-0.854
		s0.793-0.896,1-1.514c0.207-0.614,0.313-1.377,0.313-2.284v-1.154c-0.489,0.675-1.084,1.233-1.781,1.679
		c-0.698,0.444-1.499,0.668-2.402,0.668c-0.676,0-1.293-0.119-1.854-0.354c-0.559-0.237-1.038-0.605-1.438-1.115
		c-0.396-0.506-0.711-1.146-0.933-1.933c-0.224-0.781-0.333-1.728-0.333-2.829s0.109-2.057,0.333-2.854
		c0.222-0.798,0.534-1.455,0.942-1.979c0.403-0.521,0.894-0.905,1.459-1.148c0.565-0.246,1.188-0.369,1.861-0.369
		c0.874,0,1.659,0.215,2.357,0.646c0.695,0.431,1.292,0.979,1.779,1.653v-2.047h0.506v11.107
		C123.029,130.291,122.919,131.105,122.697,131.789z M122.523,120.99c-0.459-0.735-1.049-1.35-1.771-1.84
		c-0.721-0.49-1.495-0.735-2.322-0.735c-1.287,0-2.301,0.476-3.035,1.426c-0.733,0.951-1.104,2.445-1.104,4.484
		c0,2.01,0.371,3.478,1.114,4.405c0.743,0.927,1.753,1.392,3.024,1.392c0.825,0,1.594-0.238,2.299-0.714
		c0.705-0.475,1.306-1.088,1.795-1.84V120.99L122.523,120.99z"/>
	<path fill="#FFFFFF" d="M149.572,130.307v-7.361c0-1.594-0.354-2.744-1.059-3.461c-0.705-0.713-1.656-1.065-2.854-1.065
		c-0.46,0-0.938,0.072-1.429,0.218c-0.488,0.146-0.933,0.395-1.319,0.736c-0.394,0.345-0.714,0.805-0.97,1.38
		c-0.252,0.575-0.379,1.3-0.379,2.174v7.386h-0.506v-12.08h0.506v2.621c0.229-0.968,0.729-1.688,1.496-2.162
		c0.769-0.478,1.661-0.713,2.688-0.713c0.646,0,1.229,0.092,1.76,0.273c0.53,0.186,0.985,0.475,1.368,0.862
		c0.384,0.391,0.679,0.894,0.886,1.507c0.207,0.609,0.313,1.354,0.313,2.229v7.452h-0.508v0.005H149.572L149.572,130.307z"/>
</g>
</svg>
